<svg width="102" height="102" viewBox="0 0 102 102" fill="none" xmlns="http://www.w3.org/2000/svg">
<path fill-rule="evenodd" clip-rule="evenodd" d="M102 51C102 79.1665 79.1665 102 51 102C22.8335 102 0 79.1665 0 51C0 22.8335 22.8335 0 51 0C79.1665 0 102 22.8335 102 51ZM51.0004 16.4769C53.1671 16.4769 54.9235 18.2333 54.9235 20.4V46.2923H80.8159C82.9825 46.2923 84.739 48.0487 84.739 50.2154C84.739 52.382 82.9825 54.1385 80.8159 54.1385H54.9235V80.8154C54.9235 82.982 53.1671 84.7384 51.0004 84.7384C48.8337 84.7384 47.0773 82.982 47.0773 80.8154V54.1385H20.4005C18.2339 54.1385 16.4774 52.382 16.4774 50.2154C16.4774 48.0487 18.2339 46.2923 20.4005 46.2923H47.0773V20.4C47.0773 18.2333 48.8337 16.4769 51.0004 16.4769Z" fill="#D9D9D9"/>
</svg>
