<svg width="20" height="20" viewBox="0 0 20 20" fill="none" xmlns="http://www.w3.org/2000/svg">
<path d="M19.7803 0.21934C19.9073 0.346328 19.9845 0.514682 19.9979 0.693791C20.0113 0.8729 19.96 1.05087 19.8533 1.19534L19.7803 1.27934L15.7463 5.31434C17.7123 6.69386 19.1162 8.73491 19.7013 11.0643C19.7463 11.2561 19.714 11.458 19.6115 11.6262C19.5089 11.7944 19.3443 11.9155 19.1531 11.9633C18.962 12.0111 18.7597 11.9818 18.59 11.8817C18.4204 11.7816 18.2969 11.6187 18.2463 11.4283C17.7265 9.36076 16.4487 7.56401 14.6663 6.39434L12.8563 8.20434C13.5793 8.95983 13.9777 9.96842 13.9661 11.0141C13.9546 12.0597 13.5341 13.0593 12.7946 13.7986C12.0551 14.538 11.0554 14.9584 10.0098 14.9697C8.96415 14.9811 7.95563 14.5825 7.20027 13.8593L1.28127 19.7793C1.14744 19.9135 0.967776 19.9921 0.778393 19.9992C0.589009 20.0063 0.403951 19.9415 0.260426 19.8177C0.1169 19.694 0.0255509 19.5205 0.00474358 19.3321C-0.0160637 19.1437 0.0352146 18.9544 0.148268 18.8023L0.221268 18.7183L6.33427 12.6043L6.33327 12.6023L7.53327 11.4043L10.4033 8.53434H10.4013L13.2813 5.65734L13.2803 5.65534L14.4133 4.52534L18.7203 0.21934C18.8609 0.0788896 19.0515 0 19.2503 0C19.449 0 19.6396 0.0788896 19.7803 0.21934ZM11.7963 9.26434L8.26127 12.8003C8.73277 13.2557 9.36428 13.5077 10.0198 13.502C10.6753 13.4963 11.3023 13.2334 11.7658 12.7699C12.2293 12.3064 12.4923 11.6793 12.498 11.0238C12.5036 10.3684 12.2517 9.73585 11.7963 9.26434ZM10.0003 3.49934C11.0003 3.49934 11.9703 3.64734 12.8893 3.92434L11.6523 5.16034C9.51272 4.7367 7.29218 5.15142 5.44978 6.31877C3.60738 7.48611 2.284 9.31681 1.75327 11.4323C1.70146 11.6213 1.57778 11.7824 1.40869 11.8814C1.23959 11.9803 1.0385 12.0091 0.848421 11.9617C0.658342 11.9143 0.494363 11.7944 0.391552 11.6276C0.288741 11.4608 0.255259 11.2605 0.298267 11.0693C0.840067 8.90654 2.08913 6.98685 3.84698 5.61528C5.60483 4.24371 7.77064 3.49895 10.0003 3.49934ZM9.80527 7.00934L6.00427 10.8093C6.05344 9.81724 6.46971 8.87885 7.17218 8.17656C7.87466 7.47427 8.81315 7.05825 9.80527 7.00934Z" fill="black"/>
</svg>
