<svg width="20" height="20" viewBox="0 0 20 20" fill="none" xmlns="http://www.w3.org/2000/svg">
<path d="M0.310172 19.6863L0.313846 19.69C0.41126 19.7881 0.527108 19.866 0.654728 19.9192C0.782348 19.9724 0.919225 19.9999 1.05749 20C1.17383 19.9999 1.28937 19.9807 1.3995 19.9432L7.39553 17.9092L18.9015 6.40307C19.6049 5.69961 20 4.74553 20 3.75073C20 2.75593 19.6047 1.8019 18.9013 1.0985C18.1978 0.395097 17.2438 -4.35486e-05 16.249 3.59984e-09C15.2542 4.35558e-05 14.3002 0.395268 13.5968 1.09873L2.09079 12.6048L0.0569563 18.6008C-0.00712974 18.7872 -0.0173662 18.988 0.027421 19.18C0.0722081 19.372 0.170205 19.5475 0.310172 19.6863ZM14.5523 2.05414C15.0029 1.60695 15.6123 1.35655 16.2472 1.35777C16.882 1.35899 17.4905 1.61173 17.9394 2.06064C18.3883 2.50956 18.641 3.11806 18.6422 3.75291C18.6434 4.38776 18.393 4.99722 17.9458 5.44783L16.4328 6.96089L13.0391 3.5672L14.5523 2.05414ZM3.26926 13.3372L12.0837 4.52261L15.4774 7.9163L6.66287 16.7309L1.52702 18.4731L3.26926 13.3372Z" fill="black"/>
</svg>
